<svg id="visual" viewBox="0 0 900 600" width="900" height="600" xmlns="http://www.w3.org/2000/svg" xmlns:xlink="http://www.w3.org/1999/xlink" version="1.1"><g transform="translate(412.84429864187894 317.9625913698842)"><path d="M183.4 -266.8C240.2 -248.8 290.7 -202.3 310.5 -145.7C330.3 -89.1 319.6 -22.3 304.7 40C289.8 102.3 270.7 160.2 228.1 182.8C185.4 205.4 119.1 192.6 64.3 199.9C9.6 207.3 -33.7 234.6 -83.7 240.3C-133.7 246 -190.4 230.1 -215.2 191.8C-240 153.6 -232.8 93 -235.8 37.2C-238.7 -18.7 -251.7 -69.8 -245.2 -123.6C-238.6 -177.3 -212.6 -233.8 -168.5 -257.6C-124.3 -281.5 -62.2 -272.7 0.5 -273.6C63.3 -274.4 126.5 -284.9 183.4 -266.8" fill="#6600FF"></path></g></svg>