<svg id="visual" viewBox="0 0 900 675" width="900" height="675" xmlns="http://www.w3.org/2000/svg" xmlns:xlink="http://www.w3.org/1999/xlink" version="1.1"><g transform="translate(429.2493140700464 349.1111221923388)"><path d="M131.9 -190.1C185.3 -171 252.7 -158.6 298.1 -118.7C343.5 -78.8 366.7 -11.4 351.5 46.1C336.3 103.5 282.7 151 233.7 196.3C184.8 241.7 140.6 284.9 92.5 285.6C44.4 286.2 -7.5 244.3 -51 213.4C-94.5 182.5 -129.6 162.6 -178.3 137.3C-227 112 -289.2 81.3 -308 36.4C-326.7 -8.6 -302.1 -67.6 -281.5 -135.2C-261 -202.8 -244.5 -278.8 -198.3 -301.2C-152.1 -323.6 -76 -292.3 -18.4 -263.7C39.3 -235.1 78.6 -209.3 131.9 -190.1" fill="#6600FF"></path></g></svg>